<svg fill="none" height="56" viewBox="0 0 273 56" width="273" xmlns="http://www.w3.org/2000/svg" xmlns:xlink="http://www.w3.org/1999/xlink"><clipPath id="a"><path d="m0 0h273v56h-273z"/></clipPath><g clip-path="url(#a)" fill="#a25f34"><path d="m21.0152 30.2336c0-1.29.0386-2.3926.1159-3.1933l.0322-.3464h-1.5586l-.029.286c-.5571 5.3827-1.4845 7.0572-6.2054 7.0572h-2.9176c-2.46346 0-2.90141-.2193-2.90141-2.9424v-19.4779c0-2.73268.40253-2.94875 2.91431-3.05679l.3059-.01271.0129-1.42986-.3445.02224c-1.10137.0699-3.02708.11121-5.03008.11121-2.19299 0-4.04141-.04131-5.068671-.11121l-.34456697-.02542v1.42987l.30914397.01271c2.515014.10803 2.917544.3241 2.917544 3.05676v19.478c0 2.7167-.44117 2.9518-2.917544 3.0567l-.30914397.0127v1.4203l.33168597-.0095c3.899722-.1144 9.055342-.1144 11.531732-.1144 2.6986 0 6.3986 0 9.0908.1144l.3703.0159-.0354-.3622c-.1997-2.0368-.2705-4.1022-.2705-4.9919z"/><path d="m44.4136 30.2429c0-1.1343.0419-2.1289.116-2.8025l.0386-.3527h-1.5618l-.0322.2828c-.5539 5.0903-1.4813 6.6759-6.2087 6.6759h-2.9143c-2.4667 0-2.9046-.2193-2.9046-2.9424v-9.113h2.3507c2.9176 0 3.1527 2.0209 3.4232 4.3595.0225.1843.0418.3718.0676.5561l.0354.2796h1.5425l-.0225-.3368c-.1965-2.9932-.2351-4.3055-.2351-5.5606 0-.2733-.0032-.5434-.0097-.8325-.0032-.321-.0096-.6641-.0096-1.0486 0-.8706.0161-1.9859.1352-3.6764l.0226-.3399h-1.5329l-.0451.2669c-.0386.2383-.074.502-.1062.7753-.2448 1.9382-.5249 4.1307-3.2654 4.1307h-2.3218v-8.9414c0-2.72314.438-2.93921 2.9047-2.93921h3.304c3.8514 0 4.4955 1.18202 5.0236 5.87831l.0322.2828h1.5586l-.0387-.3527c-.0837-.7912-.1223-1.5982-.1159-2.399 0-.7371.0548-2.64999.2576-4.60732l.0387-.36859-.3736.01589c-2.4699.11121-5.9832.11121-8.3114.11121-2.4764 0-7.6353 0-11.5318-.11439l-.3317-.00953v1.41715l.3092.01271c2.515.10804 2.9175.32411 2.9175 3.05677v19.478c0 2.7167-.4411 2.9518-2.9175 3.0567l-.3092.0127v1.4203l.3317-.0095c3.8998-.1144 9.0554-.1144 11.5318-.1144 2.6985 0 6.3954 0 9.0907.1144l.3703.0159-.0354-.3622c-.1996-2.0368-.2705-4.0958-.2705-4.9823z"/><path d="m61.056 6.59326h-.0226c-7.6352 0-12.9711 6.17064-12.9711 15.00404 0 8.8335 4.9559 14.5402 12.9325 14.5402 7.9765 0 12.9712-6.1675 12.9712-15.0104 0-4.7218-1.3783-8.5792-3.9899-11.14982-2.2478-2.2147-5.3296-3.38402-8.9201-3.38402zm-.19 1.34408h.0129c4.9785 0 8.4596 5.49066 8.4596 13.35176s-3.2911 13.5043-8.1859 13.5043-8.4789-5.6146-8.4789-13.3613c0-5.0649 1.3396-9.2878 3.671-11.58509 1.2881-1.26782 2.8081-1.90967 4.5245-1.90967z"/><path d="m98.4461 7.25407c-1.3203 0-3.0786-.03495-4.035-.11121l-.3478-.0286v1.43623l.3092.01271c2.9787.11121 3.304.79755 3.304 3.4571v15.719l-13.5605-20.6155-.1932.01588c-.8534.07309-1.8968.11122-3.0947.11122-1.4781 0-2.8789-.04131-3.6614-.11122l-.351-.03177v1.43622l.3091.01271c2.515.10804 2.9176.32411 2.9176 3.05676v19.0871c0 2.8058-.4637 3.3555-2.9176 3.4571l-.3091.0128v1.4394l.351-.0318c.7986-.0699 2.2026-.1144 3.6614-.1144 1.2623 0 3.0625.0349 4.035.1144l.3478.0286v-1.4394l-.3092-.0127c-2.9787-.1081-3.304-.7976-3.304-3.4571v-19.6464l16.2108 24.7176h1.3976v-23.739c0-2.80251.4637-3.35221 2.9179-3.45707l.299-.01271.048-1.44893-.36.03177c-.796.06991-2.1675.11121-3.6649.11121z"/><path d="m141.401 7.25383h-2.106l-8.331 22.07397-8.524-22.20743-.244.02224c-.783.06991-2.074.11122-3.372.11122-1.478 0-2.882-.04131-3.665-.11122l-.351-.03177v1.43622l.31.01271c2.515.10804 2.917.32411 2.917 3.05673v19.0745c0 2.8057-.464 3.3554-2.917 3.4571l-.31.0127v1.4394l.351-.0318c.802-.0699 2.206-.1144 3.665-.1144 1.259 0 3.059.035 4.035.1144l.348.0286v-1.4394l-.309-.0127c-2.979-.1081-3.304-.7976-3.304-3.4571v-19.0268l9.403 23.8947.08.2033h1.086l9.032-23.9169v19.2588c0 2.7358-.402 2.9518-2.898 3.0567l-.309.0127v1.4331l.345-.0255c1.049-.0731 2.898-.1144 5.068-.1144 1.958 0 3.887.0445 5.033.1144l.342.0223v-1.4299l-.309-.0127c-2.477-.1049-2.918-.34-2.918-3.0567v-19.478c0-2.7136.441-2.94874 2.918-3.05677l.309-.01271v-1.4394l-.342.02224c-1.136.0699-3.017.11121-5.033.11121z"/><path d="m170.493 7.25383c-1.32 0-3.079-.03496-4.032-.11122l-.348-.02859v1.43304l.31.01271c2.624.11122 3.304.82297 3.304 3.45713v12.2492c0 6.8093-2.255 9.8438-7.314 9.8438s-5.954-3.4825-5.954-9.4975v-12.9991c0-2.7326.403-2.94867 2.918-3.0567l.309-.01271v-1.4267l-.342.02225c-1.136.0699-3.023.11121-5.049.11121-2.209 0-4.009-.03813-5.069-.11121l-.344-.02225v1.44576l.309.01271c2.515.10804 2.918.3241 2.918 3.05674v12.3223c0 5.5415.685 7.7785 3.056 9.9709 1.606 1.4903 3.864 2.2147 6.904 2.2147 3.301 0 6.128-1.4266 7.561-3.8193 1.159-1.951 1.674-4.5692 1.674-8.4839v-11.8075c0-2.80573.461-3.35544 2.899-3.45712l.306-.01271v-1.44893l-.348.03177c-.796.06991-2.164.11122-3.665.11122z"/><path d="m157.915 5.27454h.009c1.456-.01589 2.612-1.15661 2.631-2.61825-.048-1.40445-1.201-2.538811-2.637-2.5801181-1.456.0190649-2.612 1.1597781-2.628 2.6118881 0 1.4267 1.182 2.58648 2.628 2.58648z"/><path d="m166.262 5.1981h.09c.67 0 1.304-.24784 1.797-.70222.515-.47345.811-1.11848.834-1.81435 0-.05719 0-.11439 0-.17158-.023-.69269-.319-1.33772-.834-1.811167-.516-.473446-1.185-.7276446-1.887-.69904722-1.453.04766232-2.593 1.25192422-2.544 2.68497422.045 1.36314 1.165 2.46573 2.544 2.51021z"/><path d="m197.646 30.2429c0-1.29.039-2.3926.116-3.1902l.032-.3463h-1.558l-.029.286c-.558 5.3826-1.485 7.0572-6.206 7.0572h-2.917c-2.464 0-2.902-.2193-2.902-2.9424v-19.478c0-2.73262.403-2.94869 2.914-3.05672l.306-.01271.013-1.4394-.344.02224c-1.102.0699-3.027.11121-5.03.11121-2.197 0-4.042-.04131-5.069-.11121l-.345-.02542v1.42987l.31.01271c2.515.10803 2.917.3241 2.917 3.05673v19.4875c0 2.7168-.441 2.9519-2.917 3.0568l-.31.0127v1.4203l.332-.0095c3.9-.1144 9.055-.1144 11.532-.1144 2.698 0 6.398 0 9.091.1144l.37.0159-.035-.3623c-.2-2.0399-.271-4.1053-.271-4.9918z"/><path d="m221.041 30.2432c0-1.2901.039-2.3927.116-3.1934l.032-.3463h-1.558l-.029.2859c-.557 5.3827-1.485 7.0572-6.209 7.0572h-2.914c-2.467 0-2.905-.2192-2.905-2.9423v-19.478c0-2.71359.441-2.94872 2.918-3.05675l.309-.01271-.01-1.4394-.341.02224c-1.101.0699-3.03.11121-5.033.11121-2.197 0-4.042-.04131-5.066-.11121l-.344-.02542v1.42987l.309.01271c2.515.10803 2.917.3241 2.917 3.05676v19.4875c0 2.7167-.441 2.9519-2.917 3.0567l-.309.0127v1.4204l.331-.0096c3.9-.1143 9.056-.1143 11.532-.1143 2.699 0 6.395 0 9.091.1143l.367.0159-.032-.3622c-.19-2.0781-.258-4.1276-.258-4.995z"/><path d="m244.462 30.2527v-.0095c0-1.1344.042-2.1289.116-2.8026l.039-.3527h-1.562l-.032.2828c-.554 5.0904-1.482 6.6759-6.209 6.6759h-2.914c-2.467 0-2.905-.2192-2.905-2.9423v-9.1131h2.322c2.917 0 3.152 2.0209 3.423 4.3627.023.1843.042.3686.064.5529l.036.2796h1.542l-.022-.3368c-.197-2.9932-.235-4.3055-.235-5.5606 0-.2733-.004-.5433-.01-.8325-.003-.3209-.01-.6641-.01-1.0486 0-.8706.016-1.9859.136-3.6763l.022-.34h-1.533l-.045.2669c-.038.2383-.074.4989-.106.7753-.245 1.9383-.525 4.1339-3.265 4.1339h-2.322v-8.9414c0-2.72313.438-2.93919 2.905-2.93919h3.303c3.849 0 4.496 1.18202 5.021 5.87839l.032.2827h1.559l-.036-.3495c-.083-.7943-.122-1.5982-.112-2.4022 0-.7498.054-2.6754.257-4.60731l.039-.36858-.374.01588c-2.47.11121-5.983.11121-8.311.11121-2.477 0-7.635.00001-11.532-.11438l-.332-.00954v1.41716l.31.01271c2.511.10804 2.914.3241 2.914 3.05675v19.4875c0 2.7168-.441 2.9519-2.914 3.0567l-.31.0128v1.4203l.332-.0095c3.9-.1144 9.055-.1144 11.532-.1144 2.698 0 6.398 0 9.091.1144l.334.0127v-.3718c-.196-2.0082-.27-4.0227-.244-4.9759z"/><path d="m271.902 32.4163-.197.2447c-.766.9532-1.136 1.3758-1.925 1.3758-.838 0-1.24-.6927-1.726-2.9804l-.992-4.0037c-.718-3.0948-1.965-4.5152-4.747-5.1983 4.705-1.2806 6.428-4.6328 6.428-7.537 0-3.4508-2.606-7.13984-9.922-7.13984-.364 0-.96.00953-1.7.02542-1.163.02224-2.757.05084-4.302.05084-1.546 0-3.646-.0286-4.834-.11121l-.345-.02542v1.42987l.31.01271c2.511.10803 2.914.3241 2.914 3.05673v19.4875c0 2.7168-.441 2.9519-2.914 3.0568l-.31.0127v1.433l.345-.0254c1.047-.0731 2.892-.1144 5.065-.1144 1.978 0 3.903.0445 5.034.1144l.341.0222v-1.4298l-.309-.0127c-2.477-.1049-2.918-.34-2.918-3.0568v-8.7126h3.469c2.827 0 3.374 1.827 4.173 5.3318l.873 3.9115c.702 3.1139 2.119 4.5056 4.589 4.5056 2.241 0 3.316-.931 4.518-2.6468l.173-.251-1.098-.8262zm-16.7-20.7998c0-1.433.161-2.17657.553-2.56422.345-.33682.947-.48298 2.013-.48298h.052c4.347 0 6.286 1.9128 6.286 6.1993 0 3.0662-.78 6.1992-6.557 6.1992h-2.36l.009-9.3545z"/><path d="m22.6385 53.0005h-.2351l-3.2943-4.5534v7.3686h-1.1142v-8.9573h1.3493l3.1977 4.6074 3.1623-4.6074h1.3525v8.9573h-1.1336v-7.3431z"/><path d="m40.8263 46.8584h-1.272l-4.0704 8.9573h1.2301l.8824-1.97h5.191l.8952 1.97h1.2173l-4.0704-8.9573zm-2.7888 5.9737 2.1544-4.8393 2.1511 4.8393z"/><path d="m57.9226 52.5111c.8824-.0699 1.5361-.3749 1.9708-.8897.9082-1.1756.8341-2.8216-.1771-3.9114-.541-.5625-1.2945-.8453-2.2638-.8453h-4.1219v8.9574h1.1303v-3.2252h2.2026l2.821 3.2252h1.4362l-2.9981-3.3141zm-.5216-.9246h-2.9433v-3.7208h3.0012c.5442-.0286 1.0724.1811 1.4427.5783.3349.3558.5185.8293.5056 1.3154.0161.4925-.1707.9723-.5217 1.325v-.0095c-.4025.3654-.9403.5529-1.4845.5148z"/><path d="m76.4359 52.047c-.2834-.4131-.7117-.7118-1.2044-.8357.3993-.1366.7471-.394.9951-.7308.2351-.3241.3574-.715.351-1.1153.0418-.7245-.2834-1.4204-.8695-1.862-.6344-.4481-1.3976-.6737-2.1769-.6482h-3.9609v8.9605h3.9674c.4218.0031.8404-.0382 1.2526-.1208.3639-.0794.7149-.2097 1.0402-.3908.322-.1779.5861-.448.76-.769.19-.3685.2833-.7784.2737-1.1915-.0032-.4671-.1546-.9183-.4283-1.2996zm-5.7353-4.1816h2.8499c.496-.0222.9887.1144 1.4009.3908.351.2638.5442.6832.5216 1.1185.0258.4035-.1739.7912-.5216 1.0073-.4155.2351-.8888.3495-1.3687.3272h-2.8917l.0096-2.8406zm4.8336 6.177c-.1352.2002-.3252.3559-.5506.4481-.2255.0953-.4605.1652-.6988.2097-.248.0445-.4992.0667-.7504.0635h-2.8402l.0096-3.044h2.8789c.5282-.0095 1.0466.1303 1.4942.4035.4219.2479.6731.6991.6602 1.1821.0097.2605-.0612.5147-.1997.7371z"/><path d="m85.7585 46.8584h6.3826v1.0263h-5.2651v2.8026h5.0429v1.0263h-5.0429v3.0313h5.4615v1.0645h-6.579z"/><path d="m102.336 54.7799h4.943v1.0263h-6.07v-8.9605h1.127z"/><path d="m116.853 54.7799h4.943v1.0263h-6.07v-8.9605h1.127z"/><path d="m134.597 46.8584h-1.269l-4.074 8.9573h1.234l.882-1.97h5.188l.895 1.97h1.221l-4.074-8.9573zm-2.792 5.9641 2.157-4.8393 2.148 4.8393z"/><path d="m157.029 46.8584h6.383v1.0263h-5.278v2.8026h5.046v1.0263h-5.046v3.0313h5.464v1.0645h-6.591z"/><path d="m177.033 47.9672c-.476-.1939-.988-.2955-1.504-.3019-.586-.0159-1.165.1176-1.681.3908-.441.2129-.718.6609-.708 1.1439-.003.2129.058.4226.183.6006.145.1874.339.3336.561.4226.245.108.499.1938.757.2574.254.0635.576.1271.969.1842.447.0699.811.1335 1.088.1939.326.0731.644.1684.954.2859.302.1017.586.2574.834.4544.222.1939.399.4322.521.6991.322.7371.277 1.5824-.116 2.2846-.212.3495-.518.6387-.882.8325-.37.197-.763.3432-1.172.4353-.429.0953-.863.143-1.301.1398-.805.0095-1.601-.1652-2.322-.5147-.676-.3305-1.214-.8866-1.517-1.5697l.934-.537c.277.5052.705.9119 1.227 1.1661.525.2669 1.105.4067 1.694.4067.293 0 .586-.0254.873-.0762.283-.0509.557-.1367.818-.2574.254-.1112.476-.2891.637-.5147.164-.2415.248-.5243.238-.8135.007-.2447-.064-.4861-.199-.6895-.152-.2097-.361-.3749-.602-.4734-.261-.1176-.535-.2098-.812-.2797-.332-.0794-.666-.1461-1.005-.1938-.415-.0604-.763-.1207-1.04-.1843-.309-.0731-.615-.1684-.914-.2828-.284-.1017-.548-.2478-.78-.4353-.212-.1811-.383-.4004-.499-.6514-.299-.6768-.261-1.4521.103-2.0971.197-.3209.477-.5879.809-.7721.351-.1875.727-.3273 1.117-.4163 1.076-.232 2.196-.1589 3.233.2097.606.2606 1.101.7118 1.414 1.2837l-.857.5148c-.251-.3877-.621-.6864-1.059-.8484h.009z"/><path d="m187.022 47.8561v-.9977h7.317v.9977h-3.114v7.9564h-1.114v-7.9564z"/><path d="m206.273 46.8584h-1.269l-4.073 8.9573h1.233l.882-1.97h5.188l.895 1.97h1.221l-4.074-8.9573zm-2.785 5.9737 2.151-4.8393 2.154 4.8393z"/><path d="m216.951 47.8625v-.9978h7.314v.9978h-3.098v7.9596h-1.118v-7.9596z"/><path d="m232.699 46.8647h6.382v1.0264h-5.265v2.8025h5.043v1.0295h-5.043v3.0313h5.462v1.0613h-6.589z"/><path d="m252.703 47.9735c-.477-.1938-.989-.2955-1.507-.3018-.583-.0159-1.163.1175-1.678.3908-.441.2129-.718.6609-.709 1.1439-.006.2129.058.4258.184.6005.145.1875.335.3337.557.4226.245.1049.499.1907.76.2574.261.0636.576.1271.966.1843.451.0699.815.1335 1.089.1938.325.0731.644.1716.953.286.302.1017.586.2574.834.4544.222.1938.399.4321.521.699.323.7372.277 1.5824-.115 2.2846-.213.3496-.519.6355-.883.8325-.37.197-.763.3432-1.172.4354-.428.0953-.863.1429-1.301.1398-.805.0095-1.597-.1653-2.322-.5148-.676-.3304-1.214-.8865-1.516-1.5697l.933-.537c.277.5053.706.912 1.227 1.1662.522.2669 1.102.4067 1.691.4067.293 0 .586-.0254.876-.0763.283-.0508.557-.1366.818-.2573.254-.1113.473-.2892.634-.5148.164-.2383.251-.5243.242-.8134 0-.2447-.084-.483-.226-.68-.151-.2129-.36-.375-.602-.4735-.261-.1175-.531-.2097-.808-.2796-.332-.0794-.667-.1461-1.008-.1938-.412-.0604-.763-.1207-1.04-.1843-.309-.0731-.615-.1684-.915-.2828-.283-.1017-.547-.2478-.779-.4353-.213-.1811-.383-.4004-.499-.6514-.139-.2891-.21-.6069-.203-.9278-.016-.4131.09-.8198.306-1.1693.203-.3337.496-.6038.844-.788.351-.1875.724-.3273 1.114-.4163 1.078-.232 2.199-.1589 3.236.2097.605.2606 1.101.7118 1.414 1.2837l-.857.5148c-.251-.3877-.621-.6864-1.059-.8484v.0063z"/></g></svg>