<svg xmlns="http://www.w3.org/2000/svg" viewBox="0 0 1200 800" width="1200" height="800" role="img" aria-label="Ilustración de Economía">
  <defs>
    <linearGradient id="bg" x1="0" y1="0" x2="1" y2="1">
      <stop offset="0" stop-color="#001840"/><stop offset="1" stop-color="#000d24"/>
    </linearGradient>
    <radialGradient id="glow">
      <stop offset="0" stop-color="#3FA796" stop-opacity=".55"/>
      <stop offset="1" stop-color="#3FA796" stop-opacity="0"/>
    </radialGradient>
    <linearGradient id="sheen" x1="0" y1="1" x2="1" y2="0">
      <stop offset="0" stop-color="#FBBA00" stop-opacity=".18"/>
      <stop offset="1" stop-color="#FBBA00" stop-opacity="0"/>
    </linearGradient>
  </defs>

  <rect width="1200" height="800" fill="url(#bg)"/>
  <circle cx="733" cy="250" r="360" fill="url(#glow)"/>
  <rect width="1200" height="800" fill="url(#sheen)"/>
  <path d="M-80 618 Q 600 468 1280 678" fill="none" stroke="#3FA796" stroke-width="2" opacity="0.30"/><path d="M-80 672 Q 600 522 1280 732" fill="none" stroke="#3FA796" stroke-width="2" opacity="0.25"/><path d="M-80 726 Q 600 576 1280 786" fill="none" stroke="#3FA796" stroke-width="2" opacity="0.20"/><path d="M-80 780 Q 600 630 1280 840" fill="none" stroke="#3FA796" stroke-width="2" opacity="0.15"/>

  <g transform="translate(600 400) rotate(-1.1) scale(1.5) translate(-100 -100)"
     stroke="#3FA796" fill="none" opacity=".92" stroke-linecap="round">
    <path d="M30 170 V120 M80 170 V90 M130 170 V60 M180 170 V30" stroke-width="18" stroke-linecap="round"/>
  </g>

  <rect x="0" y="792" width="1200" height="8" fill="#FBBA00"/>
</svg>
