<svg xmlns="http://www.w3.org/2000/svg" viewBox="0 0 1200 800" width="1200" height="800" role="img" aria-label="Ilustración de Deporte">
  <defs>
    <linearGradient id="bg" x1="0" y1="0" x2="1" y2="1">
      <stop offset="0" stop-color="#001840"/><stop offset="1" stop-color="#000d24"/>
    </linearGradient>
    <radialGradient id="glow">
      <stop offset="0" stop-color="#E2603F" stop-opacity=".55"/>
      <stop offset="1" stop-color="#E2603F" stop-opacity="0"/>
    </radialGradient>
    <linearGradient id="sheen" x1="0" y1="1" x2="1" y2="0">
      <stop offset="0" stop-color="#FBBA00" stop-opacity=".18"/>
      <stop offset="1" stop-color="#FBBA00" stop-opacity="0"/>
    </linearGradient>
  </defs>

  <rect width="1200" height="800" fill="url(#bg)"/>
  <circle cx="866" cy="189" r="360" fill="url(#glow)"/>
  <rect width="1200" height="800" fill="url(#sheen)"/>
  <path d="M-80 576 Q 600 426 1280 636" fill="none" stroke="#E2603F" stroke-width="2" opacity="0.30"/><path d="M-80 630 Q 600 480 1280 690" fill="none" stroke="#E2603F" stroke-width="2" opacity="0.25"/><path d="M-80 684 Q 600 534 1280 744" fill="none" stroke="#E2603F" stroke-width="2" opacity="0.20"/><path d="M-80 738 Q 600 588 1280 798" fill="none" stroke="#E2603F" stroke-width="2" opacity="0.15"/>

  <g transform="translate(600 400) rotate(11.1) scale(1.5) translate(-100 -100)"
     stroke="#E2603F" fill="none" opacity=".92" stroke-linecap="round">
    <circle cx="100" cy="100" r="62" fill="none" stroke-width="10"/><path d="M100 38 v124 M38 100 h124" stroke-width="9"/><path d="M52 52 q48 48 96 96 M148 52 q-48 48 -96 96" fill="none" stroke-width="7" opacity=".55"/>
  </g>

  <rect x="0" y="792" width="1200" height="8" fill="#FBBA00"/>
</svg>
